<?xml version="1.0" encoding="utf-8"?>
<!-- Generator: Adobe Illustrator 28.1.0, SVG Export Plug-In . SVG Version: 6.00 Build 0)  -->
<svg version="1.1" id="Слой_1" xmlns="http://www.w3.org/2000/svg" xmlns:xlink="http://www.w3.org/1999/xlink" x="0px" y="0px"
	 viewBox="0 0 723.1 360" style="enable-background:new 0 0 723.1 360;" xml:space="preserve">
<style type="text/css">
	.st0{fill-rule:evenodd;clip-rule:evenodd;fill:#FFAA07;}
	.st1{fill-rule:evenodd;clip-rule:evenodd;fill:#B32228;}
	.st2{fill-rule:evenodd;clip-rule:evenodd;fill:#2544C3;}
	.st3{fill-rule:evenodd;clip-rule:evenodd;fill:#202237;}
</style>
<g id="Слой_x0020_1">
	<path class="st0" d="M7.1,85.3l34.7,20.3c1.5,0.9,2.7,1.7,4.2,2.7l17.4,10.4c16.3,10.2,12.3,8.2,17.6,4.6l27.1-16.5
		c1.1-0.6,1.6-0.9,2.4-1.3c1.3-0.8,1.3-0.6,2.6-1.5l31.6-19c1.5-0.8,1.3-0.4,2.9-0.9c4.9-1.7,9.3-1.1,13.9,0.8
		c1.8,0.8,2.9,1.7,4.6,2.7l34.6,20.7c0.7,0.6,1.5,0.8,2.4,1.5c1.3,0.8,0.7,0.6,2,1.3c0.5,0.2,0.5,0.2,1.1,0.6l10.8,6.4
		c0.5,0.4,1.5,1.1,2,1.3l11.3,7.8c2.9-1.7,5.3-3.2,8.4-4.9c14.4-8.3,30.7-19,45.2-27.3c0.9-0.4,1.3-0.6,2.2-1.1
		c1.6-0.9,2.9-1.9,4.4-2.8c0.9-0.4,1.3-0.6,2.2-1.1c0.9-0.6,0.9-0.6,2-1.3c2.4-1.1,2.9-1.9,4.8-2.5c-0.4-1.7-0.7-1.7-2.6-4
		c-1.5-2.1-5.5-5.3-7.9-6.8c-8-5.7-31.5-18.6-40.2-24.3l-62.5-37.5C177.2,7.8,166,0,156,0c-14.1,0-18.1,2.3-30.4,10
		c-1.5,1.1-2.7,1.7-4.4,2.7c-3.3,2.1-6,3.6-9,5.5c-9.1,5.9-21.9,12.7-31.5,18.8L58.7,50.4c-6.2,3.8-12.1,7-18.3,10.8
		c-1.5,0.9-2.7,1.5-4.2,2.5l-22.1,14c-1.5,1.5-2.4,1.7-3.8,3.4L7.1,85.3z"/>
	<path class="st1" d="M0,112v143.1c0,9.3,6,21.6,12.3,27.1c6.4,5.5,25.2,15.9,34.2,21.6l44.3,26.4c9.5,5.9,30.5,19.1,39.5,23.9
		c4.9,2.7,10.8,6.8,17,6.8v-83c-2.7-0.4-4.4-1.9-6.4-3l-58.7-35.3c-14.3-8.5-10.6-25.4-10.6-42.1c0-17.6,0-35.3,0-52.9l-30.4-18.2
		c-1.5-0.9-2.7-1.7-4.6-2.7l-26.2-15.7c-2-1.1-6.6-4.4-8.8-5.1C0.7,104.8,0,109.4,0,112z"/>
	<path class="st2" d="M235.2,145.2c0,7.6,0.5,74.1-0.2,78.3c-0.7,3.8-1.8,7-3.7,9.5c-1.8,2.8-3.5,4.6-6.4,6.4L169,273
		c-3.1,1.9-5.5,3.2-8.6,4.9v83c6.4-0.4,23.6-11,30.9-15.7l19.9-11.9c1.6-0.9,3.1-2.1,4.8-3l53.9-32.2c1.8-0.9,3.3-2.1,4.8-3l15-9.1
		c6-4,11.5-10.8,14.1-17.8c1.5-4,2.9-8,2.9-13.5v-142c0-4-0.9-5.7-1.1-9.1c-1.8,0.6-3.1,1.3-4.6,2.3l-52.3,31.3
		c-1.6,0.8-2.7,1.7-4.4,2.7l-4.6,2.8C237.9,143.5,236.8,144.3,235.2,145.2z"/>
	<path class="st3" d="M152.1,198.7h-11v-10.2c10.2,0,17.6-2.1,17.6,5.1C158.7,197.2,155.6,198.7,152.1,198.7z M151.6,179.4h-10.4
		v-9.7h12.1c2.6,0,2.9,1.1,4.4,2.3C157.6,175.8,158.2,179.4,151.6,179.4z M130.8,206.1c0,1.3,0.4,1.7,1.6,1.7
		c8.4,0,25.8,1.3,31.3-2.3c6.8-4.6,7.1-14.8,1.3-20.1c-1.6-1.5-2.2-0.9-3.5-2.7c2-0.2,1.6-0.2,2.7-1.3c8.6-8.5,1.8-20.9-7.7-20.9
		h-25.8V206.1z"/>
	<path class="st3" d="M443.5,91.6h12.1v26.9h-18.1c4.9-9.9,3.7-8.2,4.9-19.3C442.5,97.1,443.3,93.7,443.5,91.6z M424.1,119.6v14.2
		c0,2.7,3.1,1.7,9.5,1.7v-8h25.8c0,9.5-1.6,8,8.2,8c1.3,0,1.6-0.4,1.6-1.7v-13.7c0-2.3-1.3-1.7-3.8-1.7V84.7c0-1.3-0.4-1.7-1.6-1.7
		h-29.1c0,4.2-2.9,27.9-4.2,31.1C428.5,119.4,426.5,118.5,424.1,119.6z"/>
	<path class="st3" d="M177.4,207.8h32v8.5h9.9v-16.5c0-2.1-1.3-1.7-3.8-1.7v-37.5H205v37.5h-17.6v-37.5h-10.1V207.8z"/>
	<path class="st3" d="M407.1,197h-12.6v-9.1h14.3c2.4,2.8,2.2,1.9,2.2,5.1C410.9,195.7,409.6,197,407.1,197z M404.3,179.4h-9.9v-9.1
		c6.6,0,15.9-1.5,15.9,4c0,1.7-0.5,3.2-1.6,4C408,178.8,406,179.4,404.3,179.4z M385.1,204.4c0,1.3,0.4,1.7,1.6,1.7
		c8.4,0,23.8,1.3,29.4-2.7c7.5-5.3,5.3-18.2-2.6-20.1c1.6-1.3,2.4-1.1,4-3.2c4.9-6.4,1.3-18.4-9-18.4h-23.6V204.4z"/>
	<path class="st3" d="M600.5,197h-12.1v-9.1h12.1c2.6,0,4.4,1.9,4.4,4.6C604.9,195.3,603.1,197,600.5,197z M598.4,179.4h-9.9v-9.1
		c14.6,0,15.4-1.3,15.4,6.8C602,178.4,601.8,179.4,598.4,179.4z M579.2,206.1H600c7.3,0,14.3-3.4,14.3-10.8v-3.4
		c0-3.2-3.7-8.5-7.1-8.5v-0.6c7.7,0,11.3-21-5.5-21h-22.5V206.1z"/>
	<path class="st3" d="M639.5,125.9c0,2.5,3.1,1.7,8.8,1.7l19.6-28.2c0,0,0.2-0.2,0.4-0.4v22.4c-0.2,7-1.6,6.3,8.2,6.3
		c1.1,0,1.6-0.4,1.6-1.7V84.7c0-2.7-3.8-1.7-9.9-1.7c-0.9,1.3-1.5,2.1-2.4,3.4c-0.9,1.1-1.3,2.1-2.2,3.2
		c-2.2,2.8-12.8,19.3-14.8,20.7V83h-9.3V125.9z"/>
	<path class="st3" d="M431.9,204.4c0,2.7,3.1,1.7,8.8,1.7l14.6-21.2c0.9-1.5,1.5-2.3,2.4-3.6c1.1-1.5,1.3-2.7,2.7-3.6v22.2
		c0,7.4-1.6,6.3,9.3,6.3v-44.4h-9.3L441.3,189v-27.3h-9.3V204.4z"/>
	<path class="st3" d="M685.2,206.1h8.8c2.6-4.2,18.1-27.3,19.8-28.4v22.2c0,7.4-1.6,6.3,9.3,6.3v-44.4h-9.9
		c-0.5,1.7-15.7,23.7-18.5,26.9c0,0.2-0.2,0.4-0.2,0.4v-27.3h-9.3V206.1z"/>
	<path class="st3" d="M478.6,127.6h8.8l9.7-14.4c1.8-2.5,3.1-4.6,4.8-7c1.1-1.5,1.6-2.5,2.6-3.8c0.7-0.9,1.8-2.7,2.7-3.4v22.4
		c0,7.2-1.6,6.3,9.3,6.3V83h-9.9c-0.5,2.1-14.3,21.8-17.2,25.6l-1.5,1.7V83h-9.3V127.6z"/>
	<path class="st3" d="M385.1,283.1c0,1.3,0.4,1.7,1.6,1.7H418v8c12.1,0,9.5,3.4,9.5-17.1h-4v-35.5h-9.3v35.5h-19.8v-35.5h-9.3V283.1
		z"/>
	<path class="st3" d="M90.2,207.8h30.7c2.4,0,1.6-2.3,1.6-8c0-1.3-0.4-1.7-1.6-1.7H100v-9.7h20.3c2.4,0,1.6-2.5,1.6-8
		c0-1.3-0.4-1.7-1.6-1.7H100v-9.1h20.8c2.6,0,1.6-2.8,1.6-9.1H90.2V207.8z"/>
	<path class="st3" d="M547.9,197.6c-4.4,0-8.4,0-11.3-4.2c-5.9-8-3.7-23.7,10.2-23.7c9.9,0,15.7,13.1,9.1,23.3
		c-0.9,1.3-1.8,2.1-3.1,3C551.5,197,549.9,197.6,547.9,197.6z M523.6,183.9c0,8.3,5.1,17.3,12.6,20.7c8.2,3.6,18.8,2.7,25.2-3.6
		c13.7-13.7,5.3-39.8-13-39.8c-5.9,0-11.5,0.4-15.9,4.2c-2.9,2.5-2.6,1.9-5.1,5.5C525.4,173.9,523.6,179.9,523.6,183.9z"/>
	<path class="st3" d="M478.6,284.8c12.1,0,9.3,3.6,9.3-18.8h19.2v17.1c0,2.5,2.6,1.7,8.2,1.7c1.3,0,1.6-0.4,1.6-1.7v-41
		c0-2.8-3.3-1.9-9.9-1.9v17.3h-19.2v-17.3h-9.3V284.8z"/>
	<path class="st3" d="M529,125.9c0,2.5,3.1,1.7,9.3,1.7v-19h19.9v19c6.2,0,9.3,0.8,9.3-1.7V83h-9.3v17.1h-19.9V83H529V125.9z"/>
	<path class="st3" d="M436.9,283.1c0,1.3,0.4,1.7,1.6,1.7h28.5v-9.1h-20.8v-9.1h19.2c2.4,0,1.6-2.3,1.6-7.4c0-1.3-0.4-1.7-1.6-1.7
		h-19.2v-8.5h20.8v-8.7h-30.2V283.1z"/>
	<path class="st3" d="M385.1,125.9c0,1.3,0.4,1.7,1.6,1.7h28.5v-9.1h-20.8v-9.3h20.3v-9.1h-20.3v-8.5h20.8V83h-30.2V125.9z"/>
	<path class="st3" d="M645,197h-9.9v-10.8c12.6,0,14.8-1.5,14.8,6.8C649.9,194.9,647.5,197,645,197z M625.2,163.4v41
		c0,1.3,0.4,1.7,1.6,1.7c14.6,0,32.9,3.2,32.9-15.4c0-8-6.4-13.7-15.4-13.7h-9.3v-13.7c0-2.5-2.6-1.7-8.2-1.7
		C625.6,161.7,625.2,162.1,625.2,163.4z"/>
	<path class="st3" d="M480.2,168c1.5,2.3,2.9,4,4.4,6.3c2-1.1,2.9-2.1,5.3-3c4.2-1.9,11.2-2.3,13.9,0.9c3.3,3.8-0.7,6.6-6,6.6
		c-12.1,0-10.4-1.7-10.4,7.4c0,3.8,9.1,0.4,14.4,2.1c2.2,0.9,2,1.3,3.7,2.5c0,7.4-4.2,6.8-11,6.8c-2.4,0-6-1.7-8-3
		c-1.5-1.1-0.4-0.9-2.4-1.5c-0.4,1.5-3.1,4.7-4.4,6.3c7.1,11,35.1,10,35.1-5.7c0-5.3-4.4-10.2-8.8-10.2v-0.6
		c6.9,0,12.4-12.1,3.5-18.4c-5.9-4.4-15.9-4-22.5-1.3C483.3,164.6,482.8,166.3,480.2,168z"/>
	<path class="st3" d="M600,118.5h-10.4v-11c7.9,0,15.4-1.7,15.4,5.7c0,0.9-1.1,3-1.5,3.6C602.6,117.9,601.6,118.5,600,118.5z
		 M580.2,127.6c17.6,0,34,3.2,34-16.1c0-4-2.2-7-4.2-9.1c-4.9-5.1-13-4-20.5-4V83h-9.3V127.6z"/>
	<path class="st3" d="M590.1,260.3h-9.9v-11.4h8.8c3.7,0,6.6,1.9,6.6,5.7C595.6,257.7,593.2,260.3,590.1,260.3z M570.9,283.1
		c0,2.5,2.2,1.7,7.7,1.7c1.3,0,1.6-0.4,1.6-1.7v-14.2c4.6,0,13,0.6,16.6-0.9c12.3-4.9,11-27.7-5.7-27.7h-20.3V283.1z"/>
	<path class="st3" d="M526.9,248.9h12.1v34.1c0,2.7,3.1,1.7,9.5,1.7v-35.8H561v-8.7h-34.2V248.9z"/>
	<path class="st3" d="M662.5,163.4v41c0,2.7,2.6,1.7,8.4,1.7c1.1,0,1.6-0.4,1.6-1.7v-42.7C666,161.7,662.5,160.8,662.5,163.4z"/>
	<path class="st3" d="M617.6,125.9c0,2.5,2.4,1.7,7.7,1.7c1.3,0,1.6-0.4,1.6-1.7V83h-9.3V125.9z"/>
	<path class="st3" d="M692.9,154.3c4.9,7.6,17.6,7.6,22.5,0c-0.9-1.5-0.4-0.8-1.6-1.7c-0.9-0.8-1.5-1.1-2.2-1.7
		c-3.5,5.3-11.3,5.3-14.8,0L692.9,154.3z"/>
	<path class="st3" d="M647.2,75.1c5.5,8.5,17.7,8.2,22.7,0.6c-0.7-0.9-0.7-0.9-1.6-1.9l-1.8-1.5c-1.5,1.1-5.3,6.4-12.1,2.8l-3.3-2.8
		C649.4,73.6,649.4,73.9,647.2,75.1z"/>
</g>
</svg>
